<?xml version="1.0" encoding="UTF-8"?>
<svg xmlns="http://www.w3.org/2000/svg" xmlns:xlink="http://www.w3.org/1999/xlink" width="193pt" height="193pt" viewBox="0 0 193 193" version="1.1">
<g id="surface1">
<path style=" stroke:none;fill-rule:evenodd;fill:rgb(100%,100%,100%);fill-opacity:1;" d="M 0 0.242188 L 192.757813 0.242188 L 192.757813 193 L 0 193 L 0 0.242188 "/>
<path style=" stroke:none;fill-rule:evenodd;fill:rgb(13.699341%,12.199402%,12.5%);fill-opacity:1;" d="M 96.539063 181.363281 C 88 171.695313 82.363281 162.03125 69.152344 161.707031 C 62.222656 161.546875 53.523438 163.800781 44.984375 165.253906 C 41.601563 156.550781 44.824219 146.082031 38.703125 138.1875 C 32.582031 130.613281 22.109375 127.394531 13.25 122.882813 C 18.242188 108.222656 35.964844 100.648438 13.089844 70.683594 C 22.433594 65.046875 38.703125 60.855469 40.476563 51.511719 C 41.925781 43.78125 43.214844 34.921875 44.664063 27.1875 C 57.230469 28.152344 71.085938 36.371094 80.429688 30.085938 C 87.035156 25.738281 90.417969 14.941406 95.734375 11.882813 C 100.246094 13.492188 106.367188 22.191406 109.75 24.769531 C 121.832031 34.597656 132.625 30.410156 147.769531 27.507813 C 148.574219 39.59375 147.769531 55.703125 159.691406 61.339844 C 163.394531 63.273438 169.195313 66.335938 179.023438 69.394531 C 179.347656 73.101563 170.644531 83.410156 169.035156 90.339844 C 165.976563 104.355469 173.546875 112.730469 179.667969 121.753906 C 179.667969 125.296875 165.976563 128.519531 163.558594 129.488281 C 148.253906 135.449219 150.832031 149.949219 148.253906 164.445313 C 147.285156 164.605469 146.320313 165.089844 145.351563 164.929688 C 128.277344 162.351563 119.738281 158.648438 107.332031 170.246094 C 104.753906 172.664063 101.210938 176.527344 96.539063 181.363281 "/>
<path style=" stroke:none;fill-rule:evenodd;fill:rgb(92.89856%,12.5%,16.099548%);fill-opacity:1;" d="M 96.539063 174.273438 C 88.644531 165.414063 83.488281 156.550781 71.40625 156.230469 C 65.125 156.070313 57.070313 158.164063 49.335938 159.453125 C 46.273438 151.558594 49.175781 141.890625 43.535156 134.804688 C 38.058594 127.875 28.394531 124.816406 20.335938 120.789063 C 24.847656 107.253906 41.121094 100.328125 20.015625 72.777344 C 28.714844 67.785156 43.699219 63.917969 45.308594 55.378906 C 46.597656 48.289063 47.726563 40.234375 49.015625 33.148438 C 60.613281 33.953125 73.339844 41.523438 81.71875 35.726563 C 87.839844 31.699219 90.902344 21.871094 95.734375 19.132813 C 99.921875 20.421875 105.5625 28.476563 108.621094 30.890625 C 119.578125 39.753906 129.566406 36.046875 143.421875 33.46875 C 144.0625 44.425781 143.421875 59.085938 154.214844 64.402344 C 157.757813 66.011719 163.074219 68.910156 171.933594 71.8125 C 172.257813 75.035156 164.363281 84.539063 162.914063 90.984375 C 160.015625 103.710938 166.941406 111.28125 172.578125 119.660156 C 172.578125 122.882813 160.175781 125.941406 157.757813 126.746094 C 143.902344 132.066406 146.160156 145.4375 143.742188 158.808594 C 142.9375 158.96875 142.132813 159.292969 141.164063 159.292969 C 125.539063 156.875 117.644531 153.492188 106.367188 164.125 C 104.109375 166.21875 100.726563 169.761719 96.539063 174.273438 "/>
<path style=" stroke:none;fill-rule:evenodd;fill:rgb(97.999573%,90.59906%,17.999268%);fill-opacity:1;" d="M 96.539063 164.929688 C 89.613281 157.195313 85.101563 149.464844 74.46875 149.140625 C 68.828125 148.980469 61.742188 150.753906 54.972656 152.042969 C 52.234375 144.953125 54.8125 136.414063 49.820313 130.132813 C 44.984375 124.171875 36.449219 121.429688 29.359375 117.886719 C 33.386719 105.964844 47.5625 99.84375 29.199219 75.679688 C 36.769531 71.167969 49.980469 67.945313 51.269531 60.214844 C 52.558594 53.929688 53.523438 47.003906 54.652344 40.71875 C 64.800781 41.523438 76.078125 48.128906 83.488281 43.136719 C 88.804688 39.429688 91.542969 30.890625 95.894531 28.3125 C 99.601563 29.605469 104.433594 36.53125 107.171875 38.785156 C 116.839844 46.679688 125.539063 43.296875 137.78125 41.042969 C 138.425781 50.707031 137.78125 63.597656 147.449219 68.269531 C 150.347656 69.71875 155.179688 72.296875 162.914063 74.710938 C 163.234375 77.613281 156.148438 85.988281 155.019531 91.628906 C 152.441406 102.90625 158.5625 109.511719 163.558594 116.921875 C 163.558594 119.820313 152.601563 122.398438 150.507813 123.203125 C 138.265625 127.875 140.199219 139.636719 138.105469 151.398438 C 137.460938 151.558594 136.652344 151.878906 135.847656 151.71875 C 121.992188 149.625 115.066406 146.726563 105.238281 156.070313 C 103.144531 158.003906 100.246094 161.0625 96.539063 164.929688 "/>
<path style=" stroke:none;fill-rule:evenodd;fill:rgb(13.699341%,12.199402%,12.5%);fill-opacity:1;" d="M 48.371094 108.222656 C 48.691406 107.898438 48.851563 107.738281 49.175781 107.414063 C 51.589844 108.867188 54.007813 110.476563 56.425781 112.25 C 56.101563 112.410156 55.941406 112.730469 55.457031 113.054688 C 53.203125 111.445313 50.785156 109.671875 48.371094 108.222656 "/>
<path style=" stroke:none;fill-rule:evenodd;fill:rgb(13.699341%,12.199402%,12.5%);fill-opacity:1;" d="M 46.597656 104.355469 C 46.273438 104.03125 45.792969 103.871094 45.632813 103.550781 C 46.597656 101.132813 48.691406 96.945313 49.980469 94.367188 C 50.300781 94.691406 50.625 94.851563 50.945313 95.171875 C 49.820313 97.589844 47.726563 101.9375 46.597656 104.355469 "/>
<path style=" stroke:none;fill-rule:evenodd;fill:rgb(13.699341%,12.199402%,12.5%);fill-opacity:1;" d="M 41.765625 104.839844 C 41.601563 105.320313 41.441406 105.804688 41.28125 106.128906 C 38.703125 105.320313 37.414063 104.515625 34.835938 103.550781 C 34.996094 103.226563 35.160156 102.742188 35.320313 102.421875 C 37.898438 103.386719 39.1875 104.03125 41.765625 104.839844 "/>
<path style=" stroke:none;fill-rule:evenodd;fill:rgb(13.699341%,12.199402%,12.5%);fill-opacity:1;" d="M 44.179688 103.066406 C 43.699219 103.226563 43.214844 103.386719 42.890625 103.550781 C 41.765625 101.132813 40.796875 98.878906 39.832031 96.300781 C 40.152344 96.140625 40.636719 95.976563 41.121094 95.816406 C 42.085938 98.394531 43.050781 100.648438 44.179688 103.066406 "/>
<path style=" stroke:none;fill-rule:evenodd;fill:rgb(13.699341%,12.199402%,12.5%);fill-opacity:1;" d="M 48.207031 106.128906 C 48.207031 105.644531 48.207031 105.320313 48.207031 105 C 50.785156 104.355469 53.523438 103.871094 56.261719 103.386719 C 56.261719 103.710938 56.261719 104.03125 56.261719 104.515625 C 53.523438 105 50.785156 105.484375 48.207031 106.128906 "/>
<path style=" stroke:none;fill-rule:evenodd;fill:rgb(13.699341%,12.199402%,12.5%);fill-opacity:1;" d="M 34.996094 110.15625 C 37.253906 109.1875 39.507813 108.382813 41.765625 107.578125 C 41.925781 107.738281 42.246094 108.222656 42.246094 108.382813 C 39.992188 109.1875 37.734375 110.15625 35.480469 110.960938 C 35.320313 110.796875 35.160156 110.316406 34.996094 110.15625 "/>
<path style=" stroke:none;fill-rule:evenodd;fill:rgb(13.699341%,12.199402%,12.5%);fill-opacity:1;" d="M 41.765625 118.855469 C 42.246094 115.953125 42.730469 113.054688 43.375 110.15625 C 43.699219 110.15625 44.019531 110.15625 44.34375 110.15625 C 43.699219 113.054688 43.214844 115.953125 42.730469 118.855469 C 42.40625 118.855469 42.085938 118.855469 41.765625 118.855469 "/>
<path style=" stroke:none;fill-rule:evenodd;fill:rgb(13.699341%,12.199402%,12.5%);fill-opacity:1;" d="M 111.519531 61.179688 C 132.625 61.179688 150.023438 78.578125 150.023438 99.84375 C 150.023438 120.949219 132.625 138.347656 111.519531 138.347656 C 90.257813 138.347656 73.019531 120.949219 73.019531 99.84375 C 73.019531 92.914063 74.789063 86.472656 77.851563 80.996094 L 70.601563 72.132813 C 69.3125 70.523438 69.472656 68.105469 71.085938 66.816406 L 77.691406 61.339844 C 75.433594 57.636719 73.664063 53.445313 70.761719 54.574219 C 65.929688 56.347656 63.996094 62.628906 63.511719 67.785156 C 62.546875 77.449219 67.378906 87.601563 67.378906 97.265625 C 67.378906 104.195313 67.058594 111.445313 63.191406 117.082031 C 61.257813 119.980469 57.390625 122.882813 54.167969 122.398438 C 49.335938 121.59375 44.019531 108.867188 43.859375 106.773438 C 43.699219 106.128906 45.308594 105.320313 45.792969 105.964844 C 49.335938 109.992188 49.65625 118.371094 54.972656 119.335938 C 58.195313 119.980469 62.386719 113.054688 63.511719 109.347656 C 65.605469 102.097656 64.640625 96.78125 63.511719 88.890625 C 63.03125 84.859375 60.613281 75.035156 60.773438 68.429688 C 60.773438 61.824219 63.511719 51.996094 71.566406 51.835938 C 76.238281 51.675781 78.171875 56.828125 79.621094 59.566406 L 86.390625 54.089844 C 88 52.640625 90.417969 52.964844 91.707031 54.574219 L 99.117188 63.273438 C 102.984375 61.984375 107.171875 61.179688 111.519531 61.179688 "/>
<path style=" stroke:none;fill-rule:evenodd;fill:rgb(100%,100%,100%);fill-opacity:1;" d="M 91.707031 114.828125 C 91.707031 114.503906 91.707031 114.183594 91.707031 113.859375 C 104.433594 114.183594 117.644531 111.925781 128.921875 108.382813 C 128.921875 111.925781 128.921875 115.472656 128.921875 119.175781 C 113.777344 116.277344 104.273438 114.988281 91.707031 114.828125 "/>
<path style=" stroke:none;fill-rule:evenodd;fill:rgb(100%,100%,100%);fill-opacity:1;" d="M 122.476563 89.050781 C 126.019531 89.050781 128.921875 91.949219 128.921875 95.496094 C 128.921875 99.199219 126.019531 102.097656 122.476563 102.097656 C 118.933594 102.097656 115.871094 99.199219 115.871094 95.496094 C 115.871094 91.949219 118.933594 89.050781 122.476563 89.050781 "/>
<path style=" stroke:none;fill-rule:evenodd;fill:rgb(100%,100%,100%);fill-opacity:1;" d="M 98.632813 89.050781 C 102.339844 89.050781 105.238281 91.949219 105.238281 95.496094 C 105.238281 99.199219 102.339844 102.097656 98.632813 102.097656 C 95.089844 102.097656 92.1875 99.199219 92.1875 95.496094 C 92.1875 91.949219 95.089844 89.050781 98.632813 89.050781 "/>
<path style=" stroke:none;fill-rule:evenodd;fill:rgb(100%,100%,100%);fill-opacity:1;" d="M 127.792969 78.738281 L 127.472656 78.417969 C 127.148438 77.933594 126.503906 77.773438 126.019531 78.09375 L 114.742188 85.34375 C 114.261719 85.667969 114.097656 86.472656 114.421875 86.957031 L 114.742188 87.277344 C 115.066406 87.761719 115.710938 87.921875 116.195313 87.601563 L 127.472656 80.351563 C 127.953125 80.027344 128.113281 79.222656 127.792969 78.738281 "/>
<path style=" stroke:none;fill-rule:evenodd;fill:rgb(100%,100%,100%);fill-opacity:1;" d="M 93.15625 78.738281 L 93.476563 78.257813 C 93.800781 77.773438 94.445313 77.773438 94.929688 78.09375 L 106.203125 85.507813 C 106.6875 85.828125 106.851563 86.472656 106.527344 86.957031 L 106.203125 87.4375 C 105.882813 87.921875 105.238281 87.921875 104.753906 87.601563 L 93.476563 80.1875 C 92.996094 79.867188 92.832031 79.222656 93.15625 78.738281 "/>
<path style=" stroke:none;fill-rule:evenodd;fill:rgb(100%,100%,100%);fill-opacity:1;" d="M 86.710938 57.957031 L 88 56.828125 L 94.765625 64.242188 L 93.476563 65.527344 L 86.710938 57.957031 "/>
</g>
</svg>
